<mxfile host="app.diagrams.net" modified="2023-05-09T14:21:28.434Z" agent="Mozilla/5.0 (Windows NT 10.0; Win64; x64; rv:109.0) Gecko/20100101 Firefox/112.0" etag="_W5j4iRmhb1_BPJTa9jD" version="21.2.9" type="github">
  <diagram name="Page-1" id="l-FEgSQEtb5y5zVLfHLs">
    <mxGraphModel dx="794" dy="432" grid="1" gridSize="10" guides="1" tooltips="1" connect="1" arrows="1" fold="1" page="1" pageScale="1" pageWidth="850" pageHeight="1100" math="0" shadow="0">
      <root>
        <mxCell id="0" />
        <mxCell id="1" parent="0" />
        <mxCell id="m_QjOIqGxegdPOi5LpQa-1" value="Middleware Services (Spring Boot/Docker/Kubernetes)" style="whiteSpace=wrap;html=1;aspect=fixed;" parent="1" vertex="1">
          <mxGeometry x="262.5" y="100" width="250" height="250" as="geometry" />
        </mxCell>
        <mxCell id="m_QjOIqGxegdPOi5LpQa-2" value="System POD" style="rounded=1;whiteSpace=wrap;html=1;" parent="1" vertex="1">
          <mxGeometry x="340" y="130" width="95" height="20" as="geometry" />
        </mxCell>
        <mxCell id="m_QjOIqGxegdPOi5LpQa-3" value="" style="rounded=1;whiteSpace=wrap;html=1;" parent="1" vertex="1">
          <mxGeometry x="340" y="280" width="95" height="20" as="geometry" />
        </mxCell>
        <mxCell id="m_QjOIqGxegdPOi5LpQa-4" value="Auth POD" style="rounded=1;whiteSpace=wrap;html=1;" parent="1" vertex="1">
          <mxGeometry x="340" y="170" width="95" height="20" as="geometry" />
        </mxCell>
        <mxCell id="m_QjOIqGxegdPOi5LpQa-5" value="" style="rounded=1;whiteSpace=wrap;html=1;" parent="1" vertex="1">
          <mxGeometry x="340" y="240" width="95" height="20" as="geometry" />
        </mxCell>
        <mxCell id="m_QjOIqGxegdPOi5LpQa-9" value="Back end services such as legacy SOAP service" style="rounded=0;whiteSpace=wrap;html=1;" parent="1" vertex="1">
          <mxGeometry x="590" y="110" width="120" height="60" as="geometry" />
        </mxCell>
        <mxCell id="m_QjOIqGxegdPOi5LpQa-10" value="Database" style="shape=cylinder3;whiteSpace=wrap;html=1;boundedLbl=1;backgroundOutline=1;size=15;" parent="1" vertex="1">
          <mxGeometry x="630" y="240" width="60" height="80" as="geometry" />
        </mxCell>
        <mxCell id="m_QjOIqGxegdPOi5LpQa-12" value="" style="endArrow=classic;startArrow=classic;html=1;rounded=0;entryX=0;entryY=0.25;entryDx=0;entryDy=0;" parent="1" target="m_QjOIqGxegdPOi5LpQa-9" edge="1">
          <mxGeometry width="50" height="50" relative="1" as="geometry">
            <mxPoint x="510" y="180" as="sourcePoint" />
            <mxPoint x="560" y="130" as="targetPoint" />
          </mxGeometry>
        </mxCell>
        <mxCell id="m_QjOIqGxegdPOi5LpQa-13" value="" style="endArrow=classic;startArrow=classic;html=1;rounded=0;entryX=0;entryY=0;entryDx=0;entryDy=27.5;entryPerimeter=0;exitX=1;exitY=0.5;exitDx=0;exitDy=0;" parent="1" source="m_QjOIqGxegdPOi5LpQa-1" target="m_QjOIqGxegdPOi5LpQa-10" edge="1">
          <mxGeometry width="50" height="50" relative="1" as="geometry">
            <mxPoint x="520" y="190" as="sourcePoint" />
            <mxPoint x="587" y="143" as="targetPoint" />
          </mxGeometry>
        </mxCell>
        <mxCell id="m_QjOIqGxegdPOi5LpQa-14" value="IVR Systems (Genesys on AWS)" style="whiteSpace=wrap;html=1;aspect=fixed;" parent="1" vertex="1">
          <mxGeometry x="100" y="160" width="80" height="80" as="geometry" />
        </mxCell>
        <mxCell id="m_QjOIqGxegdPOi5LpQa-15" value="Caller" style="shape=umlActor;verticalLabelPosition=bottom;verticalAlign=top;html=1;outlineConnect=0;" parent="1" vertex="1">
          <mxGeometry x="70" y="50" width="30" height="60" as="geometry" />
        </mxCell>
        <mxCell id="m_QjOIqGxegdPOi5LpQa-16" value="" style="endArrow=classic;startArrow=classic;html=1;rounded=0;entryX=0.588;entryY=-0.037;entryDx=0;entryDy=0;entryPerimeter=0;exitX=1;exitY=1;exitDx=0;exitDy=0;exitPerimeter=0;" parent="1" source="m_QjOIqGxegdPOi5LpQa-15" target="m_QjOIqGxegdPOi5LpQa-14" edge="1">
          <mxGeometry width="50" height="50" relative="1" as="geometry">
            <mxPoint x="70" y="140" as="sourcePoint" />
            <mxPoint x="140" y="130" as="targetPoint" />
          </mxGeometry>
        </mxCell>
        <mxCell id="m_QjOIqGxegdPOi5LpQa-18" value="Caller" style="shape=umlActor;verticalLabelPosition=bottom;verticalAlign=top;html=1;outlineConnect=0;" parent="1" vertex="1">
          <mxGeometry x="60" y="290" width="30" height="60" as="geometry" />
        </mxCell>
        <mxCell id="m_QjOIqGxegdPOi5LpQa-20" value="" style="endArrow=classic;startArrow=classic;html=1;rounded=0;entryX=0.663;entryY=1.025;entryDx=0;entryDy=0;entryPerimeter=0;" parent="1" target="m_QjOIqGxegdPOi5LpQa-14" edge="1">
          <mxGeometry width="50" height="50" relative="1" as="geometry">
            <mxPoint x="80" y="300" as="sourcePoint" />
            <mxPoint x="127" y="358" as="targetPoint" />
          </mxGeometry>
        </mxCell>
        <mxCell id="m_QjOIqGxegdPOi5LpQa-21" value="" style="endArrow=classic;startArrow=classic;html=1;rounded=0;exitX=1;exitY=0.5;exitDx=0;exitDy=0;" parent="1" source="m_QjOIqGxegdPOi5LpQa-14" edge="1">
          <mxGeometry width="50" height="50" relative="1" as="geometry">
            <mxPoint x="180" y="210" as="sourcePoint" />
            <mxPoint x="260" y="200" as="targetPoint" />
          </mxGeometry>
        </mxCell>
        <mxCell id="m_QjOIqGxegdPOi5LpQa-22" value="MIRATECH MIDDLEWARE TEAM OWNS THIS " style="shape=process;whiteSpace=wrap;html=1;backgroundOutline=1;" parent="1" vertex="1">
          <mxGeometry x="315" y="20" width="120" height="60" as="geometry" />
        </mxCell>
      </root>
    </mxGraphModel>
  </diagram>
</mxfile>
